<?xml version="1.0" encoding="UTF-8"?><svg id="Layer_1" xmlns="http://www.w3.org/2000/svg" viewBox="0 0 935.15 365.93"><path d="M74.81,302.21v9.76H30.06v.18l35.54,8.1v5.8l-35.54,8.1v.18h44.75v9.21H10.36v-12.8l34.62-7.64v-.18l-34.62-7.55v-13.17h64.45Z" style="fill:#231f20;"/><path d="M74.81,286.56v9.76H10.36v-9.76h64.45Z" style="fill:#231f20;"/><path d="M35.96,260.23l38.85-13.54v10.4l-28.17,9.58,8.29,4.24h19.89v9.76H10.36v-9.76h26.88v-.18l-26.88-13.54v-10.22l25.6,13.26Z" style="fill:#231f20;"/><path d="M19.38,218.06v17.68h18.23v-14.27h9.02v14.27h19.15v-17.68h9.02v27.44H10.36v-27.44h9.02Z" style="fill:#231f20;"/><path d="M67.33,157.17v-16.3h9.21v26.06H12.09v-9.76h55.24Z" style="fill:#231f20;"/><path d="M27.47,108.92h33.7c10.13,0,16.3,5.98,16.3,15.74s-6.17,15.74-16.3,15.74H27.47c-10.13,0-16.3-5.98-16.3-15.74s6.17-15.74,16.3-15.74ZM27.56,130.65h33.51c4.79,0,7.37-2.12,7.37-5.98s-2.58-5.98-7.37-5.98H27.56c-4.79,0-7.37,2.12-7.37,5.98s2.58,5.98,7.37,5.98Z" style="fill:#231f20;"/><path d="M76.54,84.52v12.61l-64.45,10.87v-9.94l49.17-7.27v-.18l-49.17-7.18v-9.76l64.45,10.86Z" style="fill:#231f20;"/><path d="M76.54,61.51v9.76H12.09v-9.76h64.45Z" style="fill:#231f20;"/><path d="M76.54,23.85v9.58l-42.72,12.8v.18h42.72v9.21H12.09v-10.86l38.39-11.51v-.18H12.09v-9.21h64.45Z" style="fill:#231f20;"/><path d="M21.48,8.2l11.23,5.25v5.06l-10.31-3.31v3.31h-10.31v-10.31h9.39Z" style="fill:#231f20;"/><path d="M410.19,274.48V10.2h-70.8l-.73,275.06h.1v11.73h-8.15l-1.72-286.79h-69.4v264.28c0,52.78,23.71,75.13,75.13,75.13s75.57-22.35,75.57-75.13Z" style="fill:#231f20;"/><path d="M612.32,274.49V81.3c0-52.77,23.7-75.13,75.13-75.13s75.58,22.36,75.58,75.13v101.18l-71.1-.06v-118.12c0-5.37-3.58-5.37-4.47-5.37s-4.03,0-4.03,5.37v227.18c0,5.37,3.13,5.37,4.03,5.37s4.47,0,4.47-5.37v-102.04h71.1s0,85.04,0,85.04c0,52.77-24.15,75.13-75.58,75.13s-75.13-22.36-75.13-75.13Z" style="fill:#231f20;"/><path d="M771.96,10.2h71.1v132.82h8.5V10.2h71.1v335.4h-71.1v-149.81h-8.5v149.81h-71.1V10.2Z" style="fill:#231f20;"/><path d="M419.14,10.2h108.05l19.17,275.09,6.55-.03-18.74-275.06h69.67v335.4l-106.7-.08-25.7-274.17-6.62-.06,25.88,274.31h-71.55V10.2Z" style="fill:#231f20;"/><path d="M99.86,9.76h87.65c46.06,0,63.06,22.39,63.06,64.48v106.57c0,55.97-28.7,82.51-78.34,82.51l-1.27,82.27h-71.1V9.76ZM179.46,200.42v-126.18c0-11.64-4.47-11.64-8.5-11.64v149.46c4.03,0,8.5,0,8.5-11.64Z" style="fill:#231f20;"/></svg>